<svg width="20" height="20" fill="none" xmlns="http://www.w3.org/2000/svg"><path d="M7.074 2v3.147a1.934 1.934 0 01-1.93 1.932H2v5.842h5.84a5.431 5.431 0 003.482-1.588 5.443 5.443 0 001.574-3.492c0-.12.012-.238.012-.36V2H7.075zm.789 10.141a3.727 3.727 0 01-.378.018H2.766V7.84h2.382A2.693 2.693 0 007.84 5.147V2.762h4.313v4.724c0 .126-.006.252-.018.378a4.672 4.672 0 01-4.272 4.277z" fill="#D0D5D7" stroke="#D0D5D7"/><path d="M12.52 7.08c-.121 0-.24 0-.36.012a5.431 5.431 0 00-3.472 1.586 5.443 5.443 0 00-1.574 3.48c0 .12-.012.24-.012.361V18h5.834v-3.142a1.934 1.934 0 011.92-1.937H18V7.079h-5.48zm4.719 5.079h-2.382a2.693 2.693 0 00-2.692 2.694v2.385H7.852V12.52c0-.126.006-.252.018-.378a4.673 4.673 0 014.65-4.295h4.719v4.313z" fill="#D0D5D7" stroke="#D0D5D7"/></svg>