<svg width="20" height="20" viewBox="0 0 20 20" fill="none" xmlns="http://www.w3.org/2000/svg">
<path d="M7.0737 2V5.14667C7.0737 5.65925 6.8703 6.15084 6.50826 6.51329C6.14621 6.87574 5.65517 7.07937 5.14316 7.07937H2V12.9206H7.4796C7.60137 12.9206 7.7206 12.9206 7.83983 12.9206C9.15447 12.8316 10.392 12.2673 11.3221 11.333C12.2522 10.3986 12.8114 9.15768 12.8958 7.84127C12.8958 7.7219 12.9085 7.60254 12.9085 7.48064V2H7.0737ZM7.86266 12.141C7.73704 12.1533 7.61088 12.1592 7.48467 12.1587H2.76613V7.84127H5.14823C5.86188 7.8406 6.54611 7.55649 7.05074 7.0513C7.55536 6.54611 7.83916 5.86111 7.83983 5.14667V2.7619H12.1525V7.48571C12.1529 7.61207 12.147 7.73837 12.1347 7.86413C12.0451 8.96845 11.5662 10.0049 10.7836 10.7883C10.001 11.5718 8.96575 12.0512 7.86266 12.141Z" fill="#D0D5D7" stroke="#D0D5D7"/>
<path d="M12.5203 7.07936C12.3985 7.07936 12.2793 7.07936 12.16 7.09206C10.8492 7.18313 9.6158 7.7466 8.6881 8.67814C7.76039 9.60968 7.20127 10.8462 7.11425 12.1587C7.11425 12.2781 7.10156 12.3975 7.10156 12.5194V18H12.9363V14.8584C12.935 14.3467 13.1364 13.8553 13.4964 13.4921C13.8564 13.1288 14.3456 12.9233 14.8567 12.9206H17.9999V7.07936H12.5203ZM17.2388 12.1587H14.8567C14.1431 12.1594 13.4588 12.4435 12.9542 12.9487C12.4496 13.4539 12.1658 14.1389 12.1651 14.8533V17.2381H7.85247V12.5194C7.852 12.393 7.85792 12.2667 7.87023 12.1409C7.95987 11.0366 8.43875 10.0002 9.22132 9.21673C10.0039 8.43328 11.0392 7.95387 12.1423 7.86412C12.2679 7.85181 12.3941 7.84587 12.5203 7.84635H17.2388V12.1587Z" fill="#D0D5D7" stroke="#D0D5D7"/>
</svg>
